<svg xmlns="http://www.w3.org/2000/svg" role="img" aria-labelledby="title desc" viewBox="0 0 980 430">
  <title id="title">Canadian census geography ladder for SynthPopCan</title>
  <desc id="desc">A ladder from Canada to province or territory, census division, census subdivision, CT or ADA or DA calibration geographies, and dissemination block placement geography.</desc>
  <defs>
    <style>
      .bg { fill: #f8fafc; }
      .box { fill: #ffffff; stroke: #cbd5e1; stroke-width: 1.5; rx: 8; }
      .broad { fill: #e0f2fe; stroke: #0284c7; }
      .local { fill: #ecfdf5; stroke: #059669; }
      .cal { fill: #fff7ed; stroke: #ea580c; }
      .place { fill: #f5f3ff; stroke: #7c3aed; }
      .text { font-family: -apple-system, BlinkMacSystemFont, "Segoe UI", sans-serif; fill: #0f172a; }
      .label { font-size: 17px; font-weight: 700; }
      .small { font-size: 13px; fill: #475569; }
      .arrow { stroke: #64748b; stroke-width: 2; fill: none; marker-end: url(#arrow); }
    </style>
    <marker id="arrow" viewBox="0 0 10 10" refX="9" refY="5" markerWidth="7" markerHeight="7" orient="auto-start-reverse">
      <path d="M 0 0 L 10 5 L 0 10 z" fill="#64748b"/>
    </marker>
  </defs>
  <rect class="bg" width="980" height="430"/>

  <rect class="box broad" x="40" y="60" width="160" height="80" rx="8"/>
  <text class="text label" x="120" y="92" text-anchor="middle">Canada</text>
  <text class="text small" x="120" y="116" text-anchor="middle">national frame</text>

  <rect class="box broad" x="250" y="60" width="170" height="80" rx="8"/>
  <text class="text label" x="335" y="92" text-anchor="middle">Province / territory</text>
  <text class="text small" x="335" y="116" text-anchor="middle">broad public geography</text>

  <rect class="box local" x="470" y="60" width="150" height="80" rx="8"/>
  <text class="text label" x="545" y="92" text-anchor="middle">CD</text>
  <text class="text small" x="545" y="116" text-anchor="middle">regional unit</text>

  <rect class="box local" x="670" y="60" width="150" height="80" rx="8"/>
  <text class="text label" x="745" y="92" text-anchor="middle">CSD</text>
  <text class="text small" x="745" y="116" text-anchor="middle">municipality-like</text>

  <path class="arrow" d="M 200 100 H 250"/>
  <path class="arrow" d="M 420 100 H 470"/>
  <path class="arrow" d="M 620 100 H 670"/>

  <rect class="box cal" x="120" y="230" width="180" height="100" rx="8"/>
  <text class="text label" x="210" y="263" text-anchor="middle">CT</text>
  <text class="text small" x="210" y="287" text-anchor="middle">census tract</text>
  <text class="text small" x="210" y="309" text-anchor="middle">urban prototype</text>

  <rect class="box cal" x="400" y="230" width="180" height="100" rx="8"/>
  <text class="text label" x="490" y="263" text-anchor="middle">ADA</text>
  <text class="text small" x="490" y="287" text-anchor="middle">aggregate DA</text>
  <text class="text small" x="490" y="309" text-anchor="middle">first wall-to-wall target</text>

  <rect class="box cal" x="680" y="230" width="180" height="100" rx="8"/>
  <text class="text label" x="770" y="263" text-anchor="middle">DA</text>
  <text class="text small" x="770" y="287" text-anchor="middle">dissemination area</text>
  <text class="text small" x="770" y="309" text-anchor="middle">finer, sparser controls</text>

  <rect class="box place" x="400" y="360" width="180" height="50" rx="8"/>
  <text class="text label" x="490" y="391" text-anchor="middle">DB placement later</text>

  <path class="arrow" d="M 745 140 C 710 180, 300 180, 210 230"/>
  <path class="arrow" d="M 745 140 C 700 185, 555 185, 490 230"/>
  <path class="arrow" d="M 745 140 C 765 175, 770 195, 770 230"/>
  <path class="arrow" d="M 490 330 V 360"/>

  <text class="text small" x="490" y="205" text-anchor="middle">Calibration geographies: fit household composition to public controls</text>
  <text class="text small" x="490" y="420" text-anchor="middle">Dissemination blocks are useful later for spatial placement, not first-pass calibration</text>
</svg>
